<?xml version="1.0" encoding="utf-8"?>
<!-- Generator: Adobe Illustrator 22.0.1, SVG Export Plug-In . SVG Version: 6.00 Build 0)  -->
<svg version="1.1" id="Layer_1" xmlns="http://www.w3.org/2000/svg" xmlns:xlink="http://www.w3.org/1999/xlink" x="0px" y="0px"
	 viewBox="0 0 2525 810.6" style="enable-background:new 0 0 2525 810.6;" xml:space="preserve">
<style type="text/css">
	.st0{fill:#14152E;}
	.st1{fill:none;}
	.st2{fill:url(#SVGID_1_);}
	.st3{fill:url(#SVGID_2_);}
	.st4{fill:url(#SVGID_3_);}
	.st5{fill:url(#SVGID_4_);}
	.st6{fill:url(#SVGID_5_);}
	.st7{fill:url(#SVGID_6_);}
	.st8{fill:url(#SVGID_7_);}
	.st9{fill:url(#SVGID_8_);}
	.st10{fill:url(#SVGID_9_);}
	.st11{fill:url(#SVGID_10_);}
	.st12{fill:url(#SVGID_11_);}
	.st13{fill:url(#SVGID_12_);}
	.st14{fill:url(#SVGID_13_);}
	.st15{fill:url(#SVGID_14_);}
	.st16{fill:url(#SVGID_15_);}
</style>
<g>
	<g>
		<g>
			<g>
				<path class="st0" d="M969.8,228.9c-58.2-4.3-102.6,24.5-118.2,78.5c-12.7,44.2-8.5,87.6,12.5,128.6c19.3,37.7,52,54.8,93.7,55.1
					c42.1,0.3,74.8-16.9,95.4-54.5c14.2-25.8,18.7-54,19.3-83c0.8-10.5-0.9-20.8-2.6-31.1C1061.2,269,1022.3,232.8,969.8,228.9z
					 M996.4,434.5c-6.7,15.6-19.1,26.6-37.6,26.5c-18.5,0-29.9-11.4-37.7-26.5c-13.1-25.5-15.3-53.3-16-81.3
					c-0.2-19.3,2-38.3,8.1-56.6c9.8-29.5,34-44,59.1-35.7c14.6,4.8,24.2,15.3,29.1,29C1019,338.6,1016.8,387.2,996.4,434.5z"/>
				<path class="st0" d="M2103.4,365c23.4-7.7,40.7-20.2,47.3-43.8c10.8-39.1-10.5-73.1-53-82.5c-47.2-10.4-95.2-2.9-143.1-4.3
					c16.3,8.6,23.8,22,26.4,39.2c1.8,11.6,2,23.2,2,34.9c0,55.8,0.2,111.7-0.2,167.5c-0.1,8.1,1.9,10.8,10.2,10.3
					c12-0.7,24.2-0.6,36.2,0c7.1,0.3,9.1-1.8,9-8.9c-0.4-28.3,0.1-56.7-0.3-85c-0.1-7,1.8-9,8.9-9c25-0.1,35.8,6.1,44.3,30
					c7.5,21.1,13.2,42.9,19.8,64.3c1.2,4.1,1.3,8.8,8.2,8.6c17-0.5,33.9-0.2,52-0.2c-7.4-21.9-14.7-42.6-21.5-63.5
					C2141.5,398,2130.2,375.9,2103.4,365z M2091.5,334c-8.8,16.8-24.9,20.5-42.5,19.4c-7.5-0.5-11.9-2.8-11.1-11.9
					c0.9-11.1,0.2-22.4,0.2-33.6c0-11.6,0.3-23.2-0.1-34.8c-0.2-5.8,1.9-8.4,7.4-9c17-1.6,34.2-1.7,44.8,14.4
					C2101.7,296.1,2101.1,315.6,2091.5,334z"/>
				<path class="st0" d="M1428.7,233.5c-23.8,0.2-47.6,0.1-73.9,0.1c21.9,14.1,26.1,23.8,19.1,46.5c-7.5,24.2-16.2,47.9-24.7,71.8
					c-15.7,44.1-31.5,88.2-47.9,134.2c11.1,0,20.3-0.5,29.4,0.2c6.6,0.5,9.4-2.1,11.3-8.1c5.6-17.8,12.2-35.3,17.7-53.2
					c2-6.6,4.6-9.3,11.9-9.1c20.8,0.6,41.7,0.4,62.5,0.1c6.4-0.1,9.4,1.8,11.5,8.1c6.1,18.5,13.1,36.7,19.8,55.1
					c1.2,3.4,1.7,7.2,7,7.1c18.4-0.2,36.8-0.1,56.5-0.1c-32-83.7-63.3-165.5-94.6-247.2C1433.3,236.5,1432.8,233.5,1428.7,233.5z
					 M1424.5,386.2c-17-0.2-34-0.1-52.3-0.1c9.8-30.1,18.9-58.4,29-89.6c10.2,29.6,19.4,56.6,28.7,83.6
					C1431.9,385.7,1429,386.2,1424.5,386.2z"/>
				<path class="st0" d="M2410.6,483.7c-31-81.4-62.1-162.9-93.2-244.3c-1.1-3-2-6-6.6-5.9c-23.5,0.2-47,0.1-72.2,0.1
					c21.8,15.5,25.5,23.9,17.5,48.5c-13.2,40.2-27.8,79.9-41.9,119.9c-9.8,27.7-19.6,55.4-29.9,84.3c11.1,0,20.6-0.4,30,0.1
					c6.1,0.3,8.6-2,10.3-7.7c5.7-18.2,12.5-36.1,18.1-54.4c1.9-6.4,4.7-8.4,11.3-8.3c21.2,0.4,42.5,0.4,63.7,0
					c6.3-0.1,8.6,2.3,10.5,7.7c6.4,18.4,13.3,36.7,19.8,55.1c1.4,3.9,2.2,7.7,8,7.6c18.1-0.3,36.2-0.1,54-0.1
					C2410.4,484.5,2410.7,484,2410.6,483.7z M2255.3,385.7c9.4-29.2,18.7-57.8,28.9-89.3c10.6,31.3,20.4,59.9,30.3,89.3
					C2294.1,385.7,2275.2,385.7,2255.3,385.7z"/>
				<path class="st0" d="M1932.9,433.5c-7.7,16.5-21.4,22.1-37.6,22.8c-18.3,0.8-36.6,0.5-55,1.2c-6.2,0.2-7.6-1.9-7.6-7.8
					c0.3-25.4,0.3-50.8,0-76.2c-0.1-6.3,2.1-7.6,7.9-7.4c15.8,0.3,31.7,0.1,47.5,0.1c20.2,0,19.7,0,20.1-20.1
					c0.2-8.4-2.5-10.3-10.4-10.1c-18.7,0.6-37.5-0.2-56.2,0.4c-7.1,0.2-9.1-2-8.9-9c0.5-18.7,0.5-37.5,0-56.2
					c-0.2-7.3,2.2-9.1,9.1-8.8c14.6,0.6,29.1,0.4,43.7,0.6c19.4,0.3,33.7,8.1,42.1,27.2c0-15.3-0.6-30.6,0.2-45.9
					c0.5-8.9-2.4-10.9-11-10.9c-53.7,0.4-107.5,0.2-161.2,0.3c-2.1,0-5-1.6-6.5,2c17.4,7.8,24.6,22.2,27.1,40.2
					c1.5,10.8,1.7,21.6,1.7,32.4c0,55.8,0,111.6,0.1,167.5c0,4.8-2.4,10.7,7.1,10.6c47.1-0.4,94.1-0.2,141.2-0.1
					c4.4,0,6.9-0.7,6.8-6C1932.7,464.7,1932.9,449.1,1932.9,433.5z"/>
				<path class="st0" d="M1282.1,233.4c-7.7-0.6-10.5,2.1-12.6,9.6c-16.4,58.8-33.4,117.4-50.2,176.3c-4.5-4.1-4.8-9.8-6.4-14.8
					c-17.4-53.7-34.6-107.5-52-161.2c-1.3-3.9-0.5-9.7-7.4-9.7c-26.2,0-52.4,0-78.5,0c22.4,8.3,33,25.3,40.1,45.8
					c20.4,58.8,41,117.5,61.6,176.3c10.7,30.7,10.7,30.4,42.7,30.7c7.7,0.1,11.4-1.7,13.8-9.8c8.9-30.2,19.1-60.1,28.7-90.2
					c16.1-50.6,32.1-101.2,48.4-152.7C1300.3,233.6,1291.2,234.1,1282.1,233.4z"/>
				<path class="st0" d="M1704.7,233.4c-7.8-0.6-10.4,2.4-12.5,9.7c-16.4,58.7-33.4,117.3-50.2,176c-3.2-2.4-3.5-5.8-4.5-8.9
					c-15.8-49.4-31.7-98.8-47.6-148.2c-9.1-28.5-9.1-28.5-38.8-28.5c-17.8,0-35.6,0-53.5,0c22.5,8.3,33.1,25.4,40.2,45.9
					c20.4,58.8,41.1,117.5,61.6,176.3c10.7,30.6,10.7,30.3,42.8,30.6c7.9,0.1,11.2-2,13.7-10c14.5-47.2,29.7-94.2,44.7-141.3
					c10.7-33.6,21.5-67.1,32.5-101.5C1722.9,233.6,1713.8,234.2,1704.7,233.4z"/>
				<path class="st0" d="M797.6,255.1c0-20.3,0-21.6-16.7-22.1c-3,0-6,0-9.1,0c-11.6,0-23.2,0-34.9,0c19.5,10.6,25.6,28,27.4,47.8
					c0.5,5.1,0.7,10.3,0.8,15.4c0.1,34.6-0.1,114.2-0.1,114.2l-110.6-169c0,0-3.3-8.4-9.6-8.4c-26,0.3-52.1,0.1-78.1,0.1
					c19.5,10.6,25.6,28,27.4,47.8c0.8,8.7,1,17.5,1,26.2c0.1,51.7,0,103.3,0,155c0,24.2,0,23.9,24,23.8c7.4,0,8.8-2.5,8.7-9.2
					c-0.4-27.1-0.1-177-0.1-177c1.1-0.3,1-0.3,2.1-0.6c33.6,52.1,68.7,103.4,100,156.8c14.1,24.1,30,34.4,57.2,30.3
					c8.2-1.3,10.9-2.1,10.9-11C797.6,425.2,797.6,278.5,797.6,255.1z"/>
				<path class="st1" d="M2389.5,264.8c-0.7-3.2-1.9-5-4.3-5.8v-0.3c2.8-0.9,5.1-2.7,5.1-5.6c0-2.3-1-4-2.5-5
					c-1.6-1.2-3.7-1.9-8.4-1.9c-4,0-7.2,0.4-9.4,0.7v23.7h5.7v-9.4h2.7c3.1,0,4.6,1.2,5.1,3.6c0.7,2.9,1.2,4.9,1.9,5.8h6
					C2390.9,269.7,2390.3,268.4,2389.5,264.8z M2378.5,257.3h-2.7v-6.8c0.6-0.1,1.6-0.3,3.1-0.3c3.6,0,5.2,1.4,5.2,3.6
					C2384.1,256.3,2381.6,257.3,2378.5,257.3z M2389.5,264.8c-0.7-3.2-1.9-5-4.3-5.8v-0.3c2.8-0.9,5.1-2.7,5.1-5.6c0-2.3-1-4-2.5-5
					c-1.6-1.2-3.7-1.9-8.4-1.9c-4,0-7.2,0.4-9.4,0.7v23.7h5.7v-9.4h2.7c3.1,0,4.6,1.2,5.1,3.6c0.7,2.9,1.2,4.9,1.9,5.8h6
					C2390.9,269.7,2390.3,268.4,2389.5,264.8z M2378.5,257.3h-2.7v-6.8c0.6-0.1,1.6-0.3,3.1-0.3c3.6,0,5.2,1.4,5.2,3.6
					C2384.1,256.3,2381.6,257.3,2378.5,257.3z M2379.6,277.2c-10.9,0-19.1-8.4-19.1-18.9c0-10.4,8.2-18.9,18.8-18.9
					c10.9,0,19,8.5,19,19C2398.3,268.8,2390.3,277.3,2379.6,277.2z M2385.2,259v-0.3c2.8-0.9,5.1-2.7,5.1-5.6c0-2.3-1-4-2.5-5
					c-1.6-1.2-3.7-1.9-8.4-1.9c-4,0-7.2,0.4-9.4,0.7v23.7h5.7v-9.4h2.7c3.1,0,4.6,1.2,5.1,3.6c0.7,2.9,1.2,4.9,1.9,5.8h6
					c-0.4-0.9-1-2.2-1.8-5.8C2388.8,261.6,2387.6,259.7,2385.2,259z M2378.5,257.3h-2.7v-6.8c0.6-0.1,1.6-0.3,3.1-0.3
					c3.6,0,5.2,1.4,5.2,3.6C2384.1,256.3,2381.6,257.3,2378.5,257.3z M2389.5,264.8c-0.7-3.2-1.9-5-4.3-5.8v-0.3
					c2.8-0.9,5.1-2.7,5.1-5.6c0-2.3-1-4-2.5-5c-1.6-1.2-3.7-1.9-8.4-1.9c-4,0-7.2,0.4-9.4,0.7v23.7h5.7v-9.4h2.7
					c3.1,0,4.6,1.2,5.1,3.6c0.7,2.9,1.2,4.9,1.9,5.8h6C2390.9,269.7,2390.3,268.4,2389.5,264.8z M2378.5,257.3h-2.7v-6.8
					c0.6-0.1,1.6-0.3,3.1-0.3c3.6,0,5.2,1.4,5.2,3.6C2384.1,256.3,2381.6,257.3,2378.5,257.3z M2389.5,264.8c-0.7-3.2-1.9-5-4.3-5.8
					v-0.3c2.8-0.9,5.1-2.7,5.1-5.6c0-2.3-1-4-2.5-5c-1.6-1.2-3.7-1.9-8.4-1.9c-4,0-7.2,0.4-9.4,0.7v23.7h5.7v-9.4h2.7
					c3.1,0,4.6,1.2,5.1,3.6c0.7,2.9,1.2,4.9,1.9,5.8h6C2390.9,269.7,2390.3,268.4,2389.5,264.8z M2378.5,257.3h-2.7v-6.8
					c0.6-0.1,1.6-0.3,3.1-0.3c3.6,0,5.2,1.4,5.2,3.6C2384.1,256.3,2381.6,257.3,2378.5,257.3z"/>
				<path class="st0" d="M2379.4,239.4c-10.6,0-18.8,8.5-18.8,18.9c0,10.5,8.2,18.9,19.1,18.9c10.6,0.1,18.7-8.4,18.7-18.8
					C2398.3,247.9,2390.3,239.4,2379.4,239.4z M2385.3,270.6c-0.7-0.9-1.2-2.9-1.9-5.8c-0.4-2.5-1.9-3.6-5.1-3.6h-2.7v9.4h-5.7
					v-23.7c2.2-0.3,5.4-0.7,9.4-0.7c4.6,0,6.7,0.7,8.4,1.9c1.5,1,2.5,2.7,2.5,5c0,2.9-2.2,4.8-5.1,5.6v0.3c2.4,0.7,3.6,2.6,4.3,5.8
					c0.7,3.6,1.3,4.9,1.8,5.8H2385.3z"/>
				<path class="st0" d="M2384.1,253.8c0,2.5-2.5,3.5-5.7,3.5h-2.7v-6.8c0.6-0.1,1.6-0.3,3.1-0.3
					C2382.5,250.2,2384.1,251.7,2384.1,253.8z"/>
			</g>
		</g>
	</g>
	<g>
		<g>
			
				<linearGradient id="SVGID_1_" gradientUnits="userSpaceOnUse" x1="-761.0119" y1="4832.8296" x2="-615.725" y2="4687.5425" gradientTransform="matrix(-0.7071 -0.7071 0.7071 -0.7071 -3430.1477 3369.248)">
				<stop  offset="0" style="stop-color:#63A8AB"/>
				<stop  offset="1" style="stop-color:#272F65"/>
			</linearGradient>
			<polygon class="st2" points="422.6,541.4 319.8,438.7 525.3,438.7 			"/>
			
				<linearGradient id="SVGID_2_" gradientUnits="userSpaceOnUse" x1="653.2611" y1="3768.1355" x2="798.548" y2="3622.8486" gradientTransform="matrix(0.7071 -0.7071 -0.7071 -0.7071 2316.9438 3616.4377)">
				<stop  offset="0" style="stop-color:#63A8AB"/>
				<stop  offset="1" style="stop-color:#272F65"/>
			</linearGradient>
			<polygon class="st3" points="217.1,541.4 319.9,438.7 114.4,438.7 			"/>
			
				<linearGradient id="SVGID_3_" gradientUnits="userSpaceOnUse" x1="-3436.0305" y1="3571.7617" x2="-3436.0305" y2="3717.0486" gradientTransform="matrix(-0.7071 0.7071 -0.7071 -0.7071 364.4713 5445.2959)">
				<stop  offset="0" style="stop-color:#63A8AB"/>
				<stop  offset="1" style="stop-color:#272F65"/>
			</linearGradient>
			<polygon class="st4" points="319.9,438.7 217.1,541.4 217.1,335.9 			"/>
			
				<rect x="247.2" y="468.8" transform="matrix(0.7071 -0.7071 0.7071 0.7071 -289.1458 384.7501)" class="st0" width="145.3" height="145.3"/>
			
				<linearGradient id="SVGID_4_" gradientUnits="userSpaceOnUse" x1="-3508.6741" y1="3499.1184" x2="-3653.9609" y2="3499.1184" gradientTransform="matrix(-0.7071 0.7071 -0.7071 -0.7071 364.4713 5445.2959)">
				<stop  offset="0" style="stop-color:#63A8AB"/>
				<stop  offset="1" style="stop-color:#272F65"/>
			</linearGradient>
			<polygon class="st5" points="422.6,541.4 319.9,438.7 422.6,335.9 			"/>
			<linearGradient id="SVGID_5_" gradientUnits="userSpaceOnUse" x1="319.8615" y1="335.9383" x2="319.8615" y2="130.4716">
				<stop  offset="5.376344e-03" style="stop-color:#EE7037"/>
				<stop  offset="1" style="stop-color:#DD1814"/>
			</linearGradient>
			<polygon class="st6" points="422.6,233.2 319.9,335.9 217.1,233.2 319.9,130.5 			"/>
		</g>
	</g>
	<g>
		<linearGradient id="SVGID_6_" gradientUnits="userSpaceOnUse" x1="801.7834" y1="767.527" x2="801.7834" y2="563.4995">
			<stop  offset="5.376344e-03" style="stop-color:#EE7037"/>
			<stop  offset="1" style="stop-color:#DD1814"/>
		</linearGradient>
		<path class="st7" d="M767.1,570.3c0-18.5-3.5-25.3-13.9-29.9v-0.3h45.4c28.5,0,44.8,9,44.8,30.6c0,11.8-7.1,20.7-20.1,24.4
			c9,2.4,14.8,11.2,17.7,20.4c3,9.3,6.4,18.8,9.5,28.1h-27.9c-2.4-8.3-4.9-16.4-7.2-24.7C812,608,807.3,604,801,604h-6.9v39.6h-27
			V570.3z M794.1,588.2c0,0,3.1,0.9,6.1,0.9c9.6,0,16.4-6.1,16.4-17.3c0-10.8-5.5-16.6-16.3-16.6c-0.7,0-4.3,0.1-6.2,0.7V588.2z"/>
		<linearGradient id="SVGID_7_" gradientUnits="userSpaceOnUse" x1="946.4548" y1="767.527" x2="946.4548" y2="563.4995">
			<stop  offset="5.376344e-03" style="stop-color:#EE7037"/>
			<stop  offset="1" style="stop-color:#DD1814"/>
		</linearGradient>
		<path class="st8" d="M977.9,596h-31v33.3H966c12,0,18.8-2.4,20.7-10.3h0.3v24.7h-67.1v-73.3c0-18.5-3.5-25.3-13.9-29.9v-0.3h78.8
			v26h-0.3c-2.7-9.5-8.7-11.7-20.7-11.7h-16.8v27.2h31V596z"/>
		<linearGradient id="SVGID_8_" gradientUnits="userSpaceOnUse" x1="1091.1261" y1="767.527" x2="1091.1261" y2="563.4995">
			<stop  offset="5.376344e-03" style="stop-color:#EE7037"/>
			<stop  offset="1" style="stop-color:#DD1814"/>
		</linearGradient>
		<path class="st9" d="M1141.6,643.6H1111l-10.1-26.8h-32.5l-9.2,26.8h-18.6l30.2-81.9c1-3,1.6-5.6,1.6-8c0-6.2-3.7-10.3-10.2-13.3
			v-0.3h37.4L1141.6,643.6z M1084,570.3l-10.6,32.2h22.2l-11.4-32.2H1084z"/>
		<linearGradient id="SVGID_9_" gradientUnits="userSpaceOnUse" x1="1235.7974" y1="767.527" x2="1235.7974" y2="563.4995">
			<stop  offset="5.376344e-03" style="stop-color:#EE7037"/>
			<stop  offset="1" style="stop-color:#DD1814"/>
		</linearGradient>
		<path class="st10" d="M1210.2,643.6v-73.3c0-18.5-3.5-25.3-13.9-29.9v-0.3h40.9v89.1c2.8,0,5.6,0,8.4,0h4.3c14.8,0,22.8-1,25-10.3
			h0.3c0,8.3,0,16.4,0,24.7H1210.2z"/>
		<linearGradient id="SVGID_10_" gradientUnits="userSpaceOnUse" x1="1460.3062" y1="767.527" x2="1460.3062" y2="563.4995">
			<stop  offset="5.376344e-03" style="stop-color:#EE7037"/>
			<stop  offset="1" style="stop-color:#DD1814"/>
		</linearGradient>
		<path class="st11" d="M1491.8,596h-31v33.3h19.1c12,0,18.8-2.4,20.7-10.3h0.3v24.7h-67.1v-73.3c0-18.5-3.5-25.3-13.9-29.9v-0.3
			h78.8v26h-0.3c-2.7-9.5-8.7-11.7-20.7-11.7h-16.8v27.2h31V596z"/>
		<linearGradient id="SVGID_11_" gradientUnits="userSpaceOnUse" x1="1604.9775" y1="767.527" x2="1604.9775" y2="563.4995">
			<stop  offset="5.376344e-03" style="stop-color:#EE7037"/>
			<stop  offset="1" style="stop-color:#DD1814"/>
		</linearGradient>
		<path class="st12" d="M1595.7,600.9c-20.4-6.8-28.5-15.7-28.5-33c0-15.7,9.9-26.6,32.7-29.4c3.8-0.4,7.8-0.7,12.4-0.7
			c10.6,0,22.6,2.4,22.6,2.4v26h-0.3c-2.8-9.6-10.3-13-22.3-13c-16,0-21.4,4.3-21.4,9.9c0,5,2.8,8.9,19.5,14.8
			c23.5,8.3,32.5,20,32.5,34.3c0,19.7-13.5,34-44.5,34c-11.8,0-26.9-3.1-26.9-3.1v-15.2c8.4,2.1,17.6,3,26.9,3
			c11.8,0,18.5-4.9,18.5-12.4C1616.8,611.1,1612.4,606.5,1595.7,600.9z"/>
		<linearGradient id="SVGID_12_" gradientUnits="userSpaceOnUse" x1="1749.6488" y1="767.527" x2="1749.6488" y2="563.4995">
			<stop  offset="5.376344e-03" style="stop-color:#EE7037"/>
			<stop  offset="1" style="stop-color:#DD1814"/>
		</linearGradient>
		<path class="st13" d="M1763.2,554.5v89.1h-27v-89.1h-7.7c-12,0-18.8,3.7-20.7,11.7h-0.3v-26h84.4v26h-0.3
			c-1.9-8-8.7-11.7-20.7-11.7H1763.2z"/>
		<linearGradient id="SVGID_13_" gradientUnits="userSpaceOnUse" x1="1894.3201" y1="767.527" x2="1894.3201" y2="563.4995">
			<stop  offset="5.376344e-03" style="stop-color:#EE7037"/>
			<stop  offset="1" style="stop-color:#DD1814"/>
		</linearGradient>
		<path class="st14" d="M1944.8,643.6h-30.6l-10-26.8h-32.5l-9.2,26.8h-18.6l30.1-81.9c1-3,1.6-5.6,1.6-8c0-6.2-3.7-10.3-10.2-13.3
			v-0.3h37.4L1944.8,643.6z M1887.2,570.3l-10.6,32.2h22.2l-11.4-32.2H1887.2z"/>
		<linearGradient id="SVGID_14_" gradientUnits="userSpaceOnUse" x1="2038.9915" y1="767.527" x2="2038.9915" y2="563.4995">
			<stop  offset="5.376344e-03" style="stop-color:#EE7037"/>
			<stop  offset="1" style="stop-color:#DD1814"/>
		</linearGradient>
		<path class="st15" d="M2052.5,554.5v89.1h-27v-89.1h-7.7c-12,0-18.8,3.7-20.7,11.7h-0.3v-26h84.4v26h-0.3
			c-1.9-8-8.7-11.7-20.7-11.7H2052.5z"/>
		<linearGradient id="SVGID_15_" gradientUnits="userSpaceOnUse" x1="2183.6628" y1="767.527" x2="2183.6628" y2="563.4995">
			<stop  offset="5.376344e-03" style="stop-color:#EE7037"/>
			<stop  offset="1" style="stop-color:#DD1814"/>
		</linearGradient>
		<path class="st16" d="M2215.1,596h-31v33.3h19.1c12,0,18.8-2.4,20.7-10.3h0.3v24.7h-67.1v-73.3c0-18.5-3.5-25.3-13.9-29.9v-0.3
			h78.8v26h-0.3c-2.7-9.5-8.7-11.7-20.7-11.7h-16.8v27.2h31V596z"/>
	</g>
</g>
</svg>
